<?xml version="1.0" standalone="no"?>
<!DOCTYPE svg PUBLIC "-//W3C//DTD SVG 20010904//EN"
 "http://www.w3.org/TR/2001/REC-SVG-20010904/DTD/svg10.dtd">
<svg version="1.0" xmlns="http://www.w3.org/2000/svg"
 width="512.000000pt" height="512.000000pt" viewBox="0 0 512.000000 512.000000"
 preserveAspectRatio="xMidYMid meet">
<metadata>
Created by potrace 1.14, written by Peter Selinger 2001-2017
</metadata>
<g transform="translate(0.000000,512.000000) scale(0.100000,-0.100000)"
fill="#000000" stroke="none">
<path d="M2891 4792 l-24 -7 33 -25 c17 -14 42 -46 55 -73 27 -56 26 -114 -4
-239 -27 -113 -31 -176 -14 -229 22 -66 28 -64 29 9 1 119 62 216 189 306 115
80 -4 251 -182 262 -32 1 -69 0 -82 -4z"/>
<path d="M3320 4712 c0 -30 -37 -120 -62 -150 -12 -16 -45 -47 -73 -70 -95
-80 -112 -97 -137 -137 -43 -69 -56 -177 -28 -250 9 -22 8 -22 -88 12 -581
208 -1110 222 -1482 39 -130 -65 -196 -113 -346 -252 -210 -196 -265 -228
-469 -278 -143 -35 -190 -60 -245 -128 -100 -124 -85 -264 36 -345 46 -30 60
-48 83 -98 38 -83 82 -130 152 -161 l60 -27 -6 -68 c-9 -101 18 -102 84 -2
l29 43 -2 -84 c0 -46 2 -88 7 -92 13 -13 51 16 92 71 67 91 131 110 370 109
148 0 203 -6 333 -39 333 -85 647 -323 817 -617 l27 -48 -186 0 -186 0 0 -148
0 -147 233 0 232 0 3 -52 3 -52 -51 34 c-55 37 -102 45 -131 22 -9 -7 -30 -40
-47 -73 -28 -55 -124 -174 -141 -174 -3 0 -6 30 -6 67 1 38 -2 86 -5 108 l-5
40 -28 -82 c-30 -86 -70 -152 -111 -178 -54 -35 -175 -8 -239 53 -67 64 -83
122 -61 227 28 132 -1 161 -154 157 -178 -6 -272 -180 -224 -418 23 -110 69
-200 144 -279 42 -46 45 -51 25 -53 -12 -1 -49 -10 -81 -20 l-60 -19 75 -36
c222 -107 440 -136 704 -92 97 16 293 94 368 147 l27 19 0 -340 c0 -318 1
-341 18 -342 9 0 46 0 82 1 l65 2 -47 -36 c-26 -20 -49 -36 -52 -36 -3 0 -21
-11 -41 -24 -20 -14 -65 -39 -101 -56 -35 -18 -64 -33 -64 -36 0 -5 76 4 155
17 33 6 69 12 80 13 148 25 393 121 560 219 96 56 239 158 260 185 8 9 15 6
30 -15 10 -16 45 -53 76 -84 58 -59 60 -69 22 -108 -26 -26 -4 -23 31 4 l36
27 73 -35 c105 -52 185 -66 352 -63 113 3 152 8 205 25 83 29 135 60 187 112
101 100 145 213 138 358 -5 126 -34 207 -106 292 -31 38 -36 49 -25 58 37 31
179 355 219 501 73 261 92 578 52 825 -3 17 -7 41 -9 55 -61 366 -292 864
-504 1085 -26 27 -60 65 -75 83 l-26 32 3 -27 c6 -52 -31 -197 -70 -277 -86
-175 -258 -322 -457 -392 -122 -43 -330 -58 -437 -30 -30 7 -46 15 -35 16 113
10 279 75 378 147 156 113 267 284 312 477 15 64 22 235 11 266 -3 8 -7 26
-10 40 -39 237 -215 460 -449 571 -72 34 -87 36 -87 11z m-257 -2877 c15 -20
5 -265 -15 -363 -25 -124 -97 -310 -137 -354 -4 -5 -6 90 -6 210 l1 217 36 70
c20 39 48 107 63 152 25 77 39 93 58 68z m1334 -102 c1 -20 12 -95 18 -133 3
-14 8 -74 11 -133 l7 -108 -52 30 c-28 17 -56 31 -61 31 -15 0 -12 17 14 110
13 47 29 110 36 140 18 84 24 99 27 63z m-513 -564 c-8 -33 -28 -103 -45 -155
-29 -88 -48 -122 -57 -96 -2 6 -12 23 -23 37 l-21 25 -29 -21 c-16 -11 -29
-18 -29 -15 0 5 27 40 55 70 6 6 26 34 45 61 19 28 38 52 41 55 3 3 18 26 33
53 15 26 32 47 36 47 5 0 2 -27 -6 -61z m341 -95 c72 -55 90 -115 59 -194 -23
-57 -92 -94 -195 -105 -45 -5 -146 12 -155 26 -4 7 16 36 52 73 18 19 119 159
143 199 12 20 28 37 35 37 7 0 34 -16 61 -36z m-1153 -246 c-33 -40 -85 -97
-115 -126 l-54 -54 1 88 2 88 93 32 c51 18 96 35 99 38 3 4 12 6 19 6 8 0 -12
-32 -45 -72z"/>
</g>
</svg>
